# xmcd
# Track frame offsets:
# 150
# 14470
# 26962
# 39640
# 54155
# 67900
# 80925
# 95217
# 109725
# 123790
# 135035
# 148882
# 162825
# 175562
#
# Disc length: 2533 seconds
# Revision: 0
# Processed by: cddbd v1.4PL0 Copyright (c) Steve Scherf et al.
# Submitted via: VisiTrax 2.8.1.130 - For more info visit www.synapsa.com
#
DISCID=b809e30e
DTITLE=Arnold, Kokomo and Weldon, Casey Bill - Bottleneck Guitar Trendsetter
DTITLE=s Of The 1930s
DYEAR=1900
DGENRE=
TTITLE0=You Just As Well Let Her Go
TTITLE1=Go Ahead, Buddy
TTITLE2=Lady Doctor Blues
TTITLE3=Big Boat, The
TTITLE4=Hitch Me To Your Buggy And Drive Me Like A Mule
TTITLE5=You Shouldn't Do That
TTITLE6=Back Door Blues
TTITLE7=The Twelves
TTITLE8=I'll Be Up Someday
TTITLE9=Busy Bootin'
TTITLE10=Sagefield Woman Blues
TTITLE11=Back To The Woods
TTITLE12=Salty Dog
TTITLE13=Feels So Good
EXTD=Yazoo 1049
EXTT0=
EXTT1=
EXTT2=
EXTT3=
EXTT4=
EXTT5=
EXTT6=
EXTT7=
EXTT8=
EXTT9=
EXTT10=
EXTT11=
EXTT12=
EXTT13=
PLAYORDER=
